<mxfile host="Electron" agent="Mozilla/5.0 (Macintosh; Intel Mac OS X 10_15_7) AppleWebKit/537.36 (KHTML, like Gecko) draw.io/25.0.2 Chrome/128.0.6613.186 Electron/32.2.5 Safari/537.36" version="25.0.2">
  <diagram name="Page-1" id="2YBvvXClWsGukQMizWep">
    <mxGraphModel dx="942" dy="608" grid="1" gridSize="10" guides="1" tooltips="1" connect="1" arrows="1" fold="1" page="1" pageScale="1" pageWidth="850" pageHeight="1100" math="0" shadow="0">
      <root>
        <mxCell id="0" />
        <mxCell id="1" parent="0" />
        <mxCell id="yWO6qhfavYobrYo0h_gh-1" value="服务管理模块" style="shape=umlLifeline;perimeter=lifelinePerimeter;whiteSpace=wrap;html=1;container=1;dropTarget=0;collapsible=0;recursiveResize=0;outlineConnect=0;portConstraint=eastwest;newEdgeStyle={&quot;curved&quot;:0,&quot;rounded&quot;:0};" parent="1" vertex="1">
          <mxGeometry x="60" y="50" width="100" height="550" as="geometry" />
        </mxCell>
        <mxCell id="yWO6qhfavYobrYo0h_gh-4" value="" style="html=1;points=[[0,0,0,0,5],[0,1,0,0,-5],[1,0,0,0,5],[1,1,0,0,-5]];perimeter=orthogonalPerimeter;outlineConnect=0;targetShapes=umlLifeline;portConstraint=eastwest;newEdgeStyle={&quot;curved&quot;:0,&quot;rounded&quot;:0};" parent="yWO6qhfavYobrYo0h_gh-1" vertex="1">
          <mxGeometry x="45" y="110" width="10" height="80" as="geometry" />
        </mxCell>
        <mxCell id="yWO6qhfavYobrYo0h_gh-5" style="edgeStyle=none;curved=0;rounded=0;orthogonalLoop=1;jettySize=auto;html=1;fontSize=12;startSize=8;endSize=8;" parent="yWO6qhfavYobrYo0h_gh-1" source="yWO6qhfavYobrYo0h_gh-4" target="yWO6qhfavYobrYo0h_gh-4" edge="1">
          <mxGeometry relative="1" as="geometry">
            <Array as="points">
              <mxPoint x="140" y="180" />
            </Array>
          </mxGeometry>
        </mxCell>
        <mxCell id="yWO6qhfavYobrYo0h_gh-6" value="1.生成 AES 密钥&lt;div&gt;&amp;lt;模块间密钥&amp;gt;&lt;/div&gt;&lt;div&gt;使用随机加密法存入内存&lt;/div&gt;" style="edgeLabel;html=1;align=center;verticalAlign=middle;resizable=0;points=[];fontSize=12;" parent="yWO6qhfavYobrYo0h_gh-5" vertex="1" connectable="0">
          <mxGeometry x="-0.0856" y="-1" relative="1" as="geometry">
            <mxPoint y="10" as="offset" />
          </mxGeometry>
        </mxCell>
        <mxCell id="yWO6qhfavYobrYo0h_gh-14" value="" style="html=1;points=[[0,0,0,0,5],[0,1,0,0,-5],[1,0,0,0,5],[1,1,0,0,-5]];perimeter=orthogonalPerimeter;outlineConnect=0;targetShapes=umlLifeline;portConstraint=eastwest;newEdgeStyle={&quot;curved&quot;:0,&quot;rounded&quot;:0};" parent="yWO6qhfavYobrYo0h_gh-1" vertex="1">
          <mxGeometry x="45" y="190" width="10" height="40" as="geometry" />
        </mxCell>
        <mxCell id="yWO6qhfavYobrYo0h_gh-26" value="" style="html=1;points=[[0,0,0,0,5],[0,1,0,0,-5],[1,0,0,0,5],[1,1,0,0,-5]];perimeter=orthogonalPerimeter;outlineConnect=0;targetShapes=umlLifeline;portConstraint=eastwest;newEdgeStyle={&quot;curved&quot;:0,&quot;rounded&quot;:0};" parent="yWO6qhfavYobrYo0h_gh-1" vertex="1">
          <mxGeometry x="45" y="230" width="10" height="80" as="geometry" />
        </mxCell>
        <mxCell id="yWO6qhfavYobrYo0h_gh-28" style="edgeStyle=none;curved=0;rounded=0;orthogonalLoop=1;jettySize=auto;html=1;fontSize=12;startSize=8;endSize=8;elbow=vertical;" parent="yWO6qhfavYobrYo0h_gh-1" source="yWO6qhfavYobrYo0h_gh-26" target="yWO6qhfavYobrYo0h_gh-26" edge="1">
          <mxGeometry relative="1" as="geometry">
            <Array as="points">
              <mxPoint x="140" y="300" />
            </Array>
          </mxGeometry>
        </mxCell>
        <mxCell id="yWO6qhfavYobrYo0h_gh-29" value="3.使用该公钥加密&lt;div&gt;模块间密钥&lt;/div&gt;" style="edgeLabel;html=1;align=center;verticalAlign=middle;resizable=0;points=[];fontSize=12;" parent="yWO6qhfavYobrYo0h_gh-28" vertex="1" connectable="0">
          <mxGeometry x="-0.1107" y="-2" relative="1" as="geometry">
            <mxPoint y="13" as="offset" />
          </mxGeometry>
        </mxCell>
        <mxCell id="yWO6qhfavYobrYo0h_gh-30" value="" style="html=1;points=[[0,0,0,0,5],[0,1,0,0,-5],[1,0,0,0,5],[1,1,0,0,-5]];perimeter=orthogonalPerimeter;outlineConnect=0;targetShapes=umlLifeline;portConstraint=eastwest;newEdgeStyle={&quot;curved&quot;:0,&quot;rounded&quot;:0};" parent="yWO6qhfavYobrYo0h_gh-1" vertex="1">
          <mxGeometry x="45" y="310" width="10" height="150" as="geometry" />
        </mxCell>
        <mxCell id="yWO6qhfavYobrYo0h_gh-2" value="服务模块 A" style="shape=umlLifeline;perimeter=lifelinePerimeter;whiteSpace=wrap;html=1;container=1;dropTarget=0;collapsible=0;recursiveResize=0;outlineConnect=0;portConstraint=eastwest;newEdgeStyle={&quot;curved&quot;:0,&quot;rounded&quot;:0};" parent="1" vertex="1">
          <mxGeometry x="240" y="50" width="100" height="1240" as="geometry" />
        </mxCell>
        <mxCell id="yWO6qhfavYobrYo0h_gh-8" value="" style="html=1;points=[[0,0,0,0,5],[0,1,0,0,-5],[1,0,0,0,5],[1,1,0,0,-5]];perimeter=orthogonalPerimeter;outlineConnect=0;targetShapes=umlLifeline;portConstraint=eastwest;newEdgeStyle={&quot;curved&quot;:0,&quot;rounded&quot;:0};" parent="yWO6qhfavYobrYo0h_gh-2" vertex="1">
          <mxGeometry x="45" y="110" width="10" height="80" as="geometry" />
        </mxCell>
        <mxCell id="yWO6qhfavYobrYo0h_gh-10" style="edgeStyle=none;curved=0;rounded=0;orthogonalLoop=1;jettySize=auto;html=1;fontSize=12;startSize=8;endSize=8;elbow=vertical;" parent="yWO6qhfavYobrYo0h_gh-2" source="yWO6qhfavYobrYo0h_gh-8" target="yWO6qhfavYobrYo0h_gh-8" edge="1">
          <mxGeometry relative="1" as="geometry">
            <Array as="points">
              <mxPoint x="140" y="180" />
            </Array>
          </mxGeometry>
        </mxCell>
        <mxCell id="yWO6qhfavYobrYo0h_gh-12" value="1.生成 RSA 密钥对&lt;div&gt;使用随机加密法存入内存&lt;/div&gt;" style="edgeLabel;html=1;align=center;verticalAlign=middle;resizable=0;points=[];fontSize=12;" parent="yWO6qhfavYobrYo0h_gh-10" vertex="1" connectable="0">
          <mxGeometry x="0.0609" relative="1" as="geometry">
            <mxPoint y="-7" as="offset" />
          </mxGeometry>
        </mxCell>
        <mxCell id="yWO6qhfavYobrYo0h_gh-15" value="" style="html=1;points=[[0,0,0,0,5],[0,1,0,0,-5],[1,0,0,0,5],[1,1,0,0,-5]];perimeter=orthogonalPerimeter;outlineConnect=0;targetShapes=umlLifeline;portConstraint=eastwest;newEdgeStyle={&quot;curved&quot;:0,&quot;rounded&quot;:0};" parent="yWO6qhfavYobrYo0h_gh-2" vertex="1">
          <mxGeometry x="45" y="190" width="10" height="160" as="geometry" />
        </mxCell>
        <mxCell id="yWO6qhfavYobrYo0h_gh-33" value="" style="html=1;points=[[0,0,0,0,5],[0,1,0,0,-5],[1,0,0,0,5],[1,1,0,0,-5]];perimeter=orthogonalPerimeter;outlineConnect=0;targetShapes=umlLifeline;portConstraint=eastwest;newEdgeStyle={&quot;curved&quot;:0,&quot;rounded&quot;:0};" parent="yWO6qhfavYobrYo0h_gh-2" vertex="1">
          <mxGeometry x="45" y="350" width="10" height="80" as="geometry" />
        </mxCell>
        <mxCell id="yWO6qhfavYobrYo0h_gh-34" style="edgeStyle=none;curved=0;rounded=0;orthogonalLoop=1;jettySize=auto;html=1;fontSize=12;startSize=8;endSize=8;elbow=vertical;" parent="yWO6qhfavYobrYo0h_gh-2" source="yWO6qhfavYobrYo0h_gh-33" target="yWO6qhfavYobrYo0h_gh-33" edge="1">
          <mxGeometry relative="1" as="geometry">
            <Array as="points">
              <mxPoint x="140" y="420" />
            </Array>
          </mxGeometry>
        </mxCell>
        <mxCell id="yWO6qhfavYobrYo0h_gh-35" value="5.将模块间密钥&lt;div&gt;加密后存入内存&lt;/div&gt;" style="edgeLabel;html=1;align=center;verticalAlign=middle;resizable=0;points=[];fontSize=12;" parent="yWO6qhfavYobrYo0h_gh-34" vertex="1" connectable="0">
          <mxGeometry x="-0.0527" y="1" relative="1" as="geometry">
            <mxPoint y="6" as="offset" />
          </mxGeometry>
        </mxCell>
        <mxCell id="yWO6qhfavYobrYo0h_gh-36" value="" style="html=1;points=[[0,0,0,0,5],[0,1,0,0,-5],[1,0,0,0,5],[1,1,0,0,-5]];perimeter=orthogonalPerimeter;outlineConnect=0;targetShapes=umlLifeline;portConstraint=eastwest;newEdgeStyle={&quot;curved&quot;:0,&quot;rounded&quot;:0};" parent="yWO6qhfavYobrYo0h_gh-2" vertex="1">
          <mxGeometry x="45" y="430" width="10" height="40" as="geometry" />
        </mxCell>
        <mxCell id="yWO6qhfavYobrYo0h_gh-39" value="" style="html=1;points=[[0,0,0,0,5],[0,1,0,0,-5],[1,0,0,0,5],[1,1,0,0,-5]];perimeter=orthogonalPerimeter;outlineConnect=0;targetShapes=umlLifeline;portConstraint=eastwest;newEdgeStyle={&quot;curved&quot;:0,&quot;rounded&quot;:0};" parent="yWO6qhfavYobrYo0h_gh-2" vertex="1">
          <mxGeometry x="45" y="470" width="10" height="80" as="geometry" />
        </mxCell>
        <mxCell id="yWO6qhfavYobrYo0h_gh-40" style="edgeStyle=none;curved=0;rounded=0;orthogonalLoop=1;jettySize=auto;html=1;fontSize=12;startSize=8;endSize=8;" parent="yWO6qhfavYobrYo0h_gh-2" source="yWO6qhfavYobrYo0h_gh-39" target="yWO6qhfavYobrYo0h_gh-39" edge="1">
          <mxGeometry relative="1" as="geometry">
            <Array as="points">
              <mxPoint x="140" y="540" />
            </Array>
          </mxGeometry>
        </mxCell>
        <mxCell id="yWO6qhfavYobrYo0h_gh-41" value="7.销毁 RSA 密钥对" style="edgeLabel;html=1;align=center;verticalAlign=middle;resizable=0;points=[];fontSize=12;" parent="yWO6qhfavYobrYo0h_gh-40" vertex="1" connectable="0">
          <mxGeometry x="-0.0685" relative="1" as="geometry">
            <mxPoint y="8" as="offset" />
          </mxGeometry>
        </mxCell>
        <mxCell id="yWO6qhfavYobrYo0h_gh-48" value="" style="html=1;points=[[0,0,0,0,5],[0,1,0,0,-5],[1,0,0,0,5],[1,1,0,0,-5]];perimeter=orthogonalPerimeter;outlineConnect=0;targetShapes=umlLifeline;portConstraint=eastwest;newEdgeStyle={&quot;curved&quot;:0,&quot;rounded&quot;:0};" parent="yWO6qhfavYobrYo0h_gh-2" vertex="1">
          <mxGeometry x="45" y="580" width="10" height="80" as="geometry" />
        </mxCell>
        <mxCell id="yWO6qhfavYobrYo0h_gh-52" style="edgeStyle=none;curved=0;rounded=0;orthogonalLoop=1;jettySize=auto;html=1;fontSize=12;startSize=8;endSize=8;" parent="yWO6qhfavYobrYo0h_gh-2" source="yWO6qhfavYobrYo0h_gh-48" target="yWO6qhfavYobrYo0h_gh-48" edge="1">
          <mxGeometry relative="1" as="geometry">
            <Array as="points">
              <mxPoint x="140" y="650" />
            </Array>
          </mxGeometry>
        </mxCell>
        <mxCell id="yWO6qhfavYobrYo0h_gh-53" value="1.加密连线请求信息&lt;div&gt;使用模块间密钥加密该请求&lt;/div&gt;" style="edgeLabel;html=1;align=center;verticalAlign=middle;resizable=0;points=[];fontSize=12;" parent="yWO6qhfavYobrYo0h_gh-52" vertex="1" connectable="0">
          <mxGeometry x="-0.0696" y="-2" relative="1" as="geometry">
            <mxPoint y="8" as="offset" />
          </mxGeometry>
        </mxCell>
        <mxCell id="yWO6qhfavYobrYo0h_gh-54" value="" style="html=1;points=[[0,0,0,0,5],[0,1,0,0,-5],[1,0,0,0,5],[1,1,0,0,-5]];perimeter=orthogonalPerimeter;outlineConnect=0;targetShapes=umlLifeline;portConstraint=eastwest;newEdgeStyle={&quot;curved&quot;:0,&quot;rounded&quot;:0};" parent="yWO6qhfavYobrYo0h_gh-2" vertex="1">
          <mxGeometry x="45" y="660" width="10" height="290" as="geometry" />
        </mxCell>
        <mxCell id="yWO6qhfavYobrYo0h_gh-76" value="" style="html=1;points=[[0,0,0,0,5],[0,1,0,0,-5],[1,0,0,0,5],[1,1,0,0,-5]];perimeter=orthogonalPerimeter;outlineConnect=0;targetShapes=umlLifeline;portConstraint=eastwest;newEdgeStyle={&quot;curved&quot;:0,&quot;rounded&quot;:0};" parent="yWO6qhfavYobrYo0h_gh-2" vertex="1">
          <mxGeometry x="45" y="950" width="10" height="80" as="geometry" />
        </mxCell>
        <mxCell id="yWO6qhfavYobrYo0h_gh-77" style="edgeStyle=none;curved=0;rounded=0;orthogonalLoop=1;jettySize=auto;html=1;fontSize=12;startSize=8;endSize=8;" parent="yWO6qhfavYobrYo0h_gh-2" source="yWO6qhfavYobrYo0h_gh-76" target="yWO6qhfavYobrYo0h_gh-76" edge="1">
          <mxGeometry relative="1" as="geometry">
            <Array as="points">
              <mxPoint x="140" y="1020" />
            </Array>
          </mxGeometry>
        </mxCell>
        <mxCell id="yWO6qhfavYobrYo0h_gh-78" value="6.生成 AES 密钥&lt;div&gt;并加密存至内存&lt;/div&gt;" style="edgeLabel;html=1;align=center;verticalAlign=middle;resizable=0;points=[];fontSize=12;" parent="yWO6qhfavYobrYo0h_gh-77" vertex="1" connectable="0">
          <mxGeometry x="-0.113" relative="1" as="geometry">
            <mxPoint y="13" as="offset" />
          </mxGeometry>
        </mxCell>
        <mxCell id="yWO6qhfavYobrYo0h_gh-80" value="" style="html=1;points=[[0,0,0,0,5],[0,1,0,0,-5],[1,0,0,0,5],[1,1,0,0,-5]];perimeter=orthogonalPerimeter;outlineConnect=0;targetShapes=umlLifeline;portConstraint=eastwest;newEdgeStyle={&quot;curved&quot;:0,&quot;rounded&quot;:0};" parent="yWO6qhfavYobrYo0h_gh-2" vertex="1">
          <mxGeometry x="45" y="1030" width="10" height="200" as="geometry" />
        </mxCell>
        <mxCell id="yWO6qhfavYobrYo0h_gh-3" value="服务模块 B" style="shape=umlLifeline;perimeter=lifelinePerimeter;whiteSpace=wrap;html=1;container=1;dropTarget=0;collapsible=0;recursiveResize=0;outlineConnect=0;portConstraint=eastwest;newEdgeStyle={&quot;curved&quot;:0,&quot;rounded&quot;:0};" parent="1" vertex="1">
          <mxGeometry x="420" y="50" width="100" height="1240" as="geometry" />
        </mxCell>
        <mxCell id="yWO6qhfavYobrYo0h_gh-9" value="" style="html=1;points=[[0,0,0,0,5],[0,1,0,0,-5],[1,0,0,0,5],[1,1,0,0,-5]];perimeter=orthogonalPerimeter;outlineConnect=0;targetShapes=umlLifeline;portConstraint=eastwest;newEdgeStyle={&quot;curved&quot;:0,&quot;rounded&quot;:0};" parent="yWO6qhfavYobrYo0h_gh-3" vertex="1">
          <mxGeometry x="45" y="110" width="10" height="440" as="geometry" />
        </mxCell>
        <mxCell id="yWO6qhfavYobrYo0h_gh-43" style="edgeStyle=none;curved=0;rounded=0;orthogonalLoop=1;jettySize=auto;html=1;fontSize=12;startSize=8;endSize=8;" parent="yWO6qhfavYobrYo0h_gh-3" source="yWO6qhfavYobrYo0h_gh-9" target="yWO6qhfavYobrYo0h_gh-9" edge="1">
          <mxGeometry relative="1" as="geometry">
            <Array as="points">
              <mxPoint x="140" y="540" />
            </Array>
          </mxGeometry>
        </mxCell>
        <mxCell id="yWO6qhfavYobrYo0h_gh-55" value="" style="html=1;points=[[0,0,0,0,5],[0,1,0,0,-5],[1,0,0,0,5],[1,1,0,0,-5]];perimeter=orthogonalPerimeter;outlineConnect=0;targetShapes=umlLifeline;portConstraint=eastwest;newEdgeStyle={&quot;curved&quot;:0,&quot;rounded&quot;:0};" parent="yWO6qhfavYobrYo0h_gh-3" vertex="1">
          <mxGeometry x="45" y="670" width="10" height="20" as="geometry" />
        </mxCell>
        <mxCell id="yWO6qhfavYobrYo0h_gh-58" value="" style="html=1;points=[[0,0,0,0,5],[0,1,0,0,-5],[1,0,0,0,5],[1,1,0,0,-5]];perimeter=orthogonalPerimeter;outlineConnect=0;targetShapes=umlLifeline;portConstraint=eastwest;newEdgeStyle={&quot;curved&quot;:0,&quot;rounded&quot;:0};" parent="yWO6qhfavYobrYo0h_gh-3" vertex="1">
          <mxGeometry x="45" y="690" width="10" height="80" as="geometry" />
        </mxCell>
        <mxCell id="yWO6qhfavYobrYo0h_gh-59" style="edgeStyle=none;curved=0;rounded=0;orthogonalLoop=1;jettySize=auto;html=1;fontSize=12;startSize=8;endSize=8;" parent="yWO6qhfavYobrYo0h_gh-3" source="yWO6qhfavYobrYo0h_gh-58" target="yWO6qhfavYobrYo0h_gh-58" edge="1">
          <mxGeometry relative="1" as="geometry">
            <Array as="points">
              <mxPoint x="140" y="760" />
            </Array>
          </mxGeometry>
        </mxCell>
        <mxCell id="yWO6qhfavYobrYo0h_gh-60" value="3.解密并验证来源" style="edgeLabel;html=1;align=center;verticalAlign=middle;resizable=0;points=[];fontSize=12;" parent="yWO6qhfavYobrYo0h_gh-59" vertex="1" connectable="0">
          <mxGeometry x="-0.0719" y="-1" relative="1" as="geometry">
            <mxPoint y="8" as="offset" />
          </mxGeometry>
        </mxCell>
        <mxCell id="yWO6qhfavYobrYo0h_gh-61" value="" style="html=1;points=[[0,0,0,0,5],[0,1,0,0,-5],[1,0,0,0,5],[1,1,0,0,-5]];perimeter=orthogonalPerimeter;outlineConnect=0;targetShapes=umlLifeline;portConstraint=eastwest;newEdgeStyle={&quot;curved&quot;:0,&quot;rounded&quot;:0};" parent="yWO6qhfavYobrYo0h_gh-3" vertex="1">
          <mxGeometry x="45" y="770" width="10" height="80" as="geometry" />
        </mxCell>
        <mxCell id="yWO6qhfavYobrYo0h_gh-66" style="edgeStyle=none;curved=0;rounded=0;orthogonalLoop=1;jettySize=auto;html=1;fontSize=12;startSize=8;endSize=8;" parent="yWO6qhfavYobrYo0h_gh-3" source="yWO6qhfavYobrYo0h_gh-61" target="yWO6qhfavYobrYo0h_gh-61" edge="1">
          <mxGeometry relative="1" as="geometry">
            <Array as="points">
              <mxPoint x="140" y="840" />
            </Array>
          </mxGeometry>
        </mxCell>
        <mxCell id="yWO6qhfavYobrYo0h_gh-67" value="4.生成 RSA 密钥(若无)&lt;div&gt;并加密存至内存&lt;/div&gt;" style="edgeLabel;html=1;align=center;verticalAlign=middle;resizable=0;points=[];fontSize=12;" parent="yWO6qhfavYobrYo0h_gh-66" vertex="1" connectable="0">
          <mxGeometry x="-0.0627" y="-3" relative="1" as="geometry">
            <mxPoint y="7" as="offset" />
          </mxGeometry>
        </mxCell>
        <mxCell id="yWO6qhfavYobrYo0h_gh-68" value="" style="html=1;points=[[0,0,0,0,5],[0,1,0,0,-5],[1,0,0,0,5],[1,1,0,0,-5]];perimeter=orthogonalPerimeter;outlineConnect=0;targetShapes=umlLifeline;portConstraint=eastwest;newEdgeStyle={&quot;curved&quot;:0,&quot;rounded&quot;:0};" parent="yWO6qhfavYobrYo0h_gh-3" vertex="1">
          <mxGeometry x="45" y="850" width="10" height="220" as="geometry" />
        </mxCell>
        <mxCell id="yWO6qhfavYobrYo0h_gh-85" value="" style="html=1;points=[[0,0,0,0,5],[0,1,0,0,-5],[1,0,0,0,5],[1,1,0,0,-5]];perimeter=orthogonalPerimeter;outlineConnect=0;targetShapes=umlLifeline;portConstraint=eastwest;newEdgeStyle={&quot;curved&quot;:0,&quot;rounded&quot;:0};" parent="yWO6qhfavYobrYo0h_gh-3" vertex="1">
          <mxGeometry x="45" y="1070" width="10" height="80" as="geometry" />
        </mxCell>
        <mxCell id="yWO6qhfavYobrYo0h_gh-86" style="edgeStyle=none;curved=0;rounded=0;orthogonalLoop=1;jettySize=auto;html=1;fontSize=12;startSize=8;endSize=8;elbow=vertical;" parent="yWO6qhfavYobrYo0h_gh-3" source="yWO6qhfavYobrYo0h_gh-85" target="yWO6qhfavYobrYo0h_gh-85" edge="1">
          <mxGeometry relative="1" as="geometry">
            <Array as="points">
              <mxPoint x="140" y="1140" />
            </Array>
          </mxGeometry>
        </mxCell>
        <mxCell id="yWO6qhfavYobrYo0h_gh-87" value="8.解密密钥&lt;div&gt;并加密存至内存&lt;/div&gt;" style="edgeLabel;html=1;align=center;verticalAlign=middle;resizable=0;points=[];fontSize=12;" parent="yWO6qhfavYobrYo0h_gh-86" vertex="1" connectable="0">
          <mxGeometry x="-0.1016" y="-2" relative="1" as="geometry">
            <mxPoint y="12" as="offset" />
          </mxGeometry>
        </mxCell>
        <mxCell id="yWO6qhfavYobrYo0h_gh-88" value="" style="html=1;points=[[0,0,0,0,5],[0,1,0,0,-5],[1,0,0,0,5],[1,1,0,0,-5]];perimeter=orthogonalPerimeter;outlineConnect=0;targetShapes=umlLifeline;portConstraint=eastwest;newEdgeStyle={&quot;curved&quot;:0,&quot;rounded&quot;:0};" parent="yWO6qhfavYobrYo0h_gh-3" vertex="1">
          <mxGeometry x="45" y="1150" width="10" height="80" as="geometry" />
        </mxCell>
        <mxCell id="yWO6qhfavYobrYo0h_gh-19" style="edgeStyle=none;curved=0;rounded=0;orthogonalLoop=1;jettySize=auto;html=1;fontSize=12;startSize=8;endSize=8;" parent="1" source="yWO6qhfavYobrYo0h_gh-15" target="yWO6qhfavYobrYo0h_gh-14" edge="1">
          <mxGeometry relative="1" as="geometry">
            <Array as="points">
              <mxPoint x="200" y="260" />
            </Array>
          </mxGeometry>
        </mxCell>
        <mxCell id="yWO6qhfavYobrYo0h_gh-20" value="2.明文发送公钥" style="edgeLabel;html=1;align=center;verticalAlign=middle;resizable=0;points=[];fontSize=12;" parent="yWO6qhfavYobrYo0h_gh-19" vertex="1" connectable="0">
          <mxGeometry x="0.0816" y="-3" relative="1" as="geometry">
            <mxPoint x="7" y="3" as="offset" />
          </mxGeometry>
        </mxCell>
        <mxCell id="yWO6qhfavYobrYo0h_gh-31" style="edgeStyle=none;curved=0;rounded=0;orthogonalLoop=1;jettySize=auto;html=1;fontSize=12;startSize=8;endSize=8;" parent="1" source="yWO6qhfavYobrYo0h_gh-30" target="yWO6qhfavYobrYo0h_gh-15" edge="1">
          <mxGeometry relative="1" as="geometry">
            <Array as="points">
              <mxPoint x="200" y="380" />
            </Array>
          </mxGeometry>
        </mxCell>
        <mxCell id="yWO6qhfavYobrYo0h_gh-32" value="4.发送加密后的&lt;div&gt;模块间密钥&lt;/div&gt;" style="edgeLabel;html=1;align=center;verticalAlign=middle;resizable=0;points=[];fontSize=12;" parent="yWO6qhfavYobrYo0h_gh-31" vertex="1" connectable="0">
          <mxGeometry x="-0.1316" y="2" relative="1" as="geometry">
            <mxPoint x="11" y="2" as="offset" />
          </mxGeometry>
        </mxCell>
        <mxCell id="yWO6qhfavYobrYo0h_gh-37" style="edgeStyle=none;curved=0;rounded=0;orthogonalLoop=1;jettySize=auto;html=1;entryX=1;entryY=1;entryDx=0;entryDy=-5;entryPerimeter=0;fontSize=12;startSize=8;endSize=8;" parent="1" source="yWO6qhfavYobrYo0h_gh-36" target="yWO6qhfavYobrYo0h_gh-30" edge="1">
          <mxGeometry relative="1" as="geometry" />
        </mxCell>
        <mxCell id="yWO6qhfavYobrYo0h_gh-38" value="6.使用模块间密钥&lt;div&gt;加密发送回执&lt;/div&gt;" style="edgeLabel;html=1;align=center;verticalAlign=middle;resizable=0;points=[];fontSize=12;" parent="yWO6qhfavYobrYo0h_gh-37" vertex="1" connectable="0">
          <mxGeometry x="0.0317" y="1" relative="1" as="geometry">
            <mxPoint x="3" as="offset" />
          </mxGeometry>
        </mxCell>
        <mxCell id="yWO6qhfavYobrYo0h_gh-42" value="模块间密钥传输完成" style="text;align=center;fontStyle=1;verticalAlign=middle;spacingLeft=3;spacingRight=3;strokeColor=none;rotatable=0;points=[[0,0.5],[1,0.5]];portConstraint=eastwest;html=1;" parent="1" vertex="1">
          <mxGeometry x="160" y="540" width="80" height="26" as="geometry" />
        </mxCell>
        <mxCell id="yWO6qhfavYobrYo0h_gh-45" value="服务启动时(仅执行一次)" style="text;align=center;fontStyle=1;verticalAlign=middle;spacingLeft=3;spacingRight=3;strokeColor=none;rotatable=0;points=[[0,0.5],[1,0.5]];portConstraint=eastwest;html=1;" parent="1" vertex="1">
          <mxGeometry x="80" y="120" width="80" height="26" as="geometry" />
        </mxCell>
        <mxCell id="yWO6qhfavYobrYo0h_gh-47" value="服务模块 A 与模块 B 间通讯时" style="text;align=center;fontStyle=1;verticalAlign=middle;spacingLeft=3;spacingRight=3;strokeColor=none;rotatable=0;points=[[0,0.5],[1,0.5]];portConstraint=eastwest;html=1;" parent="1" vertex="1">
          <mxGeometry x="100" y="610" width="80" height="26" as="geometry" />
        </mxCell>
        <mxCell id="yWO6qhfavYobrYo0h_gh-56" style="edgeStyle=none;curved=0;rounded=0;orthogonalLoop=1;jettySize=auto;html=1;entryX=0;entryY=0;entryDx=0;entryDy=5;entryPerimeter=0;fontSize=12;startSize=8;endSize=8;" parent="1" source="yWO6qhfavYobrYo0h_gh-54" target="yWO6qhfavYobrYo0h_gh-55" edge="1">
          <mxGeometry relative="1" as="geometry" />
        </mxCell>
        <mxCell id="yWO6qhfavYobrYo0h_gh-57" value="2.发送加密请求" style="edgeLabel;html=1;align=center;verticalAlign=middle;resizable=0;points=[];fontSize=12;" parent="yWO6qhfavYobrYo0h_gh-56" vertex="1" connectable="0">
          <mxGeometry x="-0.0334" y="1" relative="1" as="geometry">
            <mxPoint as="offset" />
          </mxGeometry>
        </mxCell>
        <mxCell id="yWO6qhfavYobrYo0h_gh-62" value="验证通过" style="shape=umlFrame;whiteSpace=wrap;html=1;pointerEvents=0;" parent="1" vertex="1">
          <mxGeometry x="200" y="820" width="430" height="100" as="geometry" />
        </mxCell>
        <mxCell id="yWO6qhfavYobrYo0h_gh-69" style="edgeStyle=none;curved=0;rounded=0;orthogonalLoop=1;jettySize=auto;html=1;exitX=0;exitY=0;exitDx=0;exitDy=5;exitPerimeter=0;fontSize=12;startSize=8;endSize=8;" parent="1" source="yWO6qhfavYobrYo0h_gh-68" target="yWO6qhfavYobrYo0h_gh-54" edge="1">
          <mxGeometry relative="1" as="geometry" />
        </mxCell>
        <mxCell id="yWO6qhfavYobrYo0h_gh-70" value="5.加密传送公钥" style="edgeLabel;html=1;align=center;verticalAlign=middle;resizable=0;points=[];fontSize=12;" parent="yWO6qhfavYobrYo0h_gh-69" vertex="1" connectable="0">
          <mxGeometry x="0.0359" relative="1" as="geometry">
            <mxPoint as="offset" />
          </mxGeometry>
        </mxCell>
        <mxCell id="yWO6qhfavYobrYo0h_gh-71" value="验证不通过" style="shape=umlFrame;whiteSpace=wrap;html=1;pointerEvents=0;width=70;height=30;" parent="1" vertex="1">
          <mxGeometry x="200" y="920" width="430" height="80" as="geometry" />
        </mxCell>
        <mxCell id="yWO6qhfavYobrYo0h_gh-72" value="" style="ellipse;html=1;shape=endState;fillColor=#000000;strokeColor=#ff0000;" parent="1" vertex="1">
          <mxGeometry x="220" y="960" width="30" height="30" as="geometry" />
        </mxCell>
        <mxCell id="yWO6qhfavYobrYo0h_gh-73" style="edgeStyle=none;curved=0;rounded=0;orthogonalLoop=1;jettySize=auto;html=1;fontSize=12;startSize=8;endSize=8;" parent="1" source="yWO6qhfavYobrYo0h_gh-68" target="yWO6qhfavYobrYo0h_gh-54" edge="1">
          <mxGeometry relative="1" as="geometry">
            <Array as="points">
              <mxPoint x="380" y="960" />
            </Array>
          </mxGeometry>
        </mxCell>
        <mxCell id="yWO6qhfavYobrYo0h_gh-74" value="4.连线被拒绝" style="edgeLabel;html=1;align=center;verticalAlign=middle;resizable=0;points=[];fontSize=12;" parent="yWO6qhfavYobrYo0h_gh-73" vertex="1" connectable="0">
          <mxGeometry x="-0.1406" relative="1" as="geometry">
            <mxPoint x="-12" as="offset" />
          </mxGeometry>
        </mxCell>
        <mxCell id="yWO6qhfavYobrYo0h_gh-75" style="edgeStyle=none;curved=0;rounded=0;orthogonalLoop=1;jettySize=auto;html=1;fontSize=12;startSize=8;endSize=8;" parent="1" source="yWO6qhfavYobrYo0h_gh-54" target="yWO6qhfavYobrYo0h_gh-72" edge="1">
          <mxGeometry relative="1" as="geometry">
            <Array as="points">
              <mxPoint x="270" y="975" />
            </Array>
          </mxGeometry>
        </mxCell>
        <mxCell id="yWO6qhfavYobrYo0h_gh-81" style="edgeStyle=none;curved=0;rounded=0;orthogonalLoop=1;jettySize=auto;html=1;fontSize=12;startSize=8;endSize=8;" parent="1" source="yWO6qhfavYobrYo0h_gh-80" target="yWO6qhfavYobrYo0h_gh-68" edge="1">
          <mxGeometry relative="1" as="geometry">
            <Array as="points">
              <mxPoint x="430" y="1100" />
            </Array>
          </mxGeometry>
        </mxCell>
        <mxCell id="yWO6qhfavYobrYo0h_gh-82" value="7.使用 RSA 公钥&lt;div&gt;加密 AES 密钥&lt;/div&gt;" style="edgeLabel;html=1;align=center;verticalAlign=middle;resizable=0;points=[];fontSize=12;" parent="yWO6qhfavYobrYo0h_gh-81" vertex="1" connectable="0">
          <mxGeometry x="-0.07" y="-1" relative="1" as="geometry">
            <mxPoint as="offset" />
          </mxGeometry>
        </mxCell>
        <mxCell id="yWO6qhfavYobrYo0h_gh-89" style="edgeStyle=none;curved=0;rounded=0;orthogonalLoop=1;jettySize=auto;html=1;exitX=0;exitY=0;exitDx=0;exitDy=5;exitPerimeter=0;fontSize=12;startSize=8;endSize=8;" parent="1" source="yWO6qhfavYobrYo0h_gh-88" target="yWO6qhfavYobrYo0h_gh-80" edge="1">
          <mxGeometry relative="1" as="geometry" />
        </mxCell>
        <mxCell id="yWO6qhfavYobrYo0h_gh-90" value="9.使用 AES 密钥加密回执" style="edgeLabel;html=1;align=center;verticalAlign=middle;resizable=0;points=[];fontSize=12;" parent="yWO6qhfavYobrYo0h_gh-89" vertex="1" connectable="0">
          <mxGeometry x="-0.1715" y="-2" relative="1" as="geometry">
            <mxPoint x="-14" as="offset" />
          </mxGeometry>
        </mxCell>
        <mxCell id="yWO6qhfavYobrYo0h_gh-91" value="成功建立双向加密通道" style="text;align=center;fontStyle=1;verticalAlign=middle;spacingLeft=3;spacingRight=3;strokeColor=none;rotatable=0;points=[[0,0.5],[1,0.5]];portConstraint=eastwest;html=1;" parent="1" vertex="1">
          <mxGeometry x="340" y="1240" width="80" height="26" as="geometry" />
        </mxCell>
        <mxCell id="WFayYqWASHlP5ISYJMmj-1" value="随加密法不使用密钥加密，硬编码在程序中，但仅在编译后才确定具体的程序逻辑。" style="shape=note;whiteSpace=wrap;html=1;backgroundOutline=1;darkOpacity=0.05;size=7;verticalAlign=middle;align=left;" vertex="1" parent="1">
          <mxGeometry x="650" y="180" width="250" height="40" as="geometry" />
        </mxCell>
        <mxCell id="WFayYqWASHlP5ISYJMmj-2" value="&lt;span style=&quot;text-align: center; text-wrap: nowrap; background-color: rgb(255, 255, 255);&quot;&gt;协商步骤同服务模块 A，因此&lt;/span&gt;&lt;span style=&quot;text-align: center; text-wrap: nowrap; background-color: initial;&quot;&gt;不再赘述。&lt;/span&gt;" style="shape=note;whiteSpace=wrap;html=1;backgroundOutline=1;darkOpacity=0.05;size=7;verticalAlign=middle;align=left;" vertex="1" parent="1">
          <mxGeometry x="650" y="370" width="250" height="20" as="geometry" />
        </mxCell>
        <mxCell id="WFayYqWASHlP5ISYJMmj-3" value="&lt;div style=&quot;text-align: center;&quot;&gt;&lt;span style=&quot;text-wrap: nowrap; background-color: rgb(255, 255, 255);&quot;&gt;确保后续的通讯安全，直接销毁。&lt;/span&gt;&lt;/div&gt;" style="shape=note;whiteSpace=wrap;html=1;backgroundOutline=1;darkOpacity=0.05;size=7;verticalAlign=middle;align=left;" vertex="1" parent="1">
          <mxGeometry x="650" y="550" width="250" height="20" as="geometry" />
        </mxCell>
        <mxCell id="WFayYqWASHlP5ISYJMmj-4" value="管理模块有防火墙白名单机制，防止中间人挟持。" style="shape=note;whiteSpace=wrap;html=1;backgroundOutline=1;darkOpacity=0.05;size=7;verticalAlign=middle;align=left;" vertex="1" parent="1">
          <mxGeometry x="650" y="270" width="250" height="40" as="geometry" />
        </mxCell>
        <mxCell id="WFayYqWASHlP5ISYJMmj-5" value="每次连线前验证请求来源，以防止中间人挟持。" style="shape=note;whiteSpace=wrap;html=1;backgroundOutline=1;darkOpacity=0.05;size=7;verticalAlign=middle;align=left;" vertex="1" parent="1">
          <mxGeometry x="650" y="760" width="250" height="40" as="geometry" />
        </mxCell>
        <mxCell id="WFayYqWASHlP5ISYJMmj-6" value="" style="edgeStyle=none;orthogonalLoop=1;jettySize=auto;html=1;rounded=0;fontSize=12;startSize=8;endSize=8;curved=1;dashed=1;endArrow=openThin;endFill=0;" edge="1" parent="1" target="WFayYqWASHlP5ISYJMmj-1">
          <mxGeometry width="120" relative="1" as="geometry">
            <mxPoint x="440" y="200" as="sourcePoint" />
            <mxPoint x="700" y="220" as="targetPoint" />
            <Array as="points" />
          </mxGeometry>
        </mxCell>
        <mxCell id="WFayYqWASHlP5ISYJMmj-7" value="" style="edgeStyle=none;orthogonalLoop=1;jettySize=auto;html=1;rounded=0;fontSize=12;startSize=8;endSize=8;curved=1;dashed=1;endArrow=openThin;endFill=0;" edge="1" parent="1" target="WFayYqWASHlP5ISYJMmj-4">
          <mxGeometry width="120" relative="1" as="geometry">
            <mxPoint x="220" y="260" as="sourcePoint" />
            <mxPoint x="560" y="270" as="targetPoint" />
            <Array as="points">
              <mxPoint x="250" y="290" />
            </Array>
          </mxGeometry>
        </mxCell>
        <mxCell id="WFayYqWASHlP5ISYJMmj-9" value="" style="edgeStyle=none;orthogonalLoop=1;jettySize=auto;html=1;rounded=0;fontSize=12;startSize=8;endSize=8;curved=1;dashed=1;endArrow=openThin;endFill=0;" edge="1" parent="1" target="WFayYqWASHlP5ISYJMmj-2">
          <mxGeometry width="120" relative="1" as="geometry">
            <mxPoint x="560" y="380" as="sourcePoint" />
            <mxPoint x="690" y="370" as="targetPoint" />
            <Array as="points" />
          </mxGeometry>
        </mxCell>
        <mxCell id="WFayYqWASHlP5ISYJMmj-10" value="" style="edgeStyle=none;orthogonalLoop=1;jettySize=auto;html=1;rounded=0;fontSize=12;startSize=8;endSize=8;curved=1;dashed=1;endArrow=openThin;endFill=0;" edge="1" parent="1" target="WFayYqWASHlP5ISYJMmj-3">
          <mxGeometry width="120" relative="1" as="geometry">
            <mxPoint x="430" y="560" as="sourcePoint" />
            <mxPoint x="630" y="510" as="targetPoint" />
            <Array as="points" />
          </mxGeometry>
        </mxCell>
        <mxCell id="WFayYqWASHlP5ISYJMmj-11" value="" style="edgeStyle=none;orthogonalLoop=1;jettySize=auto;html=1;rounded=0;fontSize=12;startSize=8;endSize=8;curved=1;dashed=1;endArrow=openThin;endFill=0;" edge="1" parent="1" target="WFayYqWASHlP5ISYJMmj-5">
          <mxGeometry width="120" relative="1" as="geometry">
            <mxPoint x="610" y="780" as="sourcePoint" />
            <mxPoint x="740" y="750" as="targetPoint" />
            <Array as="points" />
          </mxGeometry>
        </mxCell>
      </root>
    </mxGraphModel>
  </diagram>
</mxfile>
